<?xml version="1.0" encoding="UTF-8"?>
<svg xmlns="http://www.w3.org/2000/svg" width="1018" height="668" viewBox="0 0 1018 668" font-family="ui-monospace, SFMono-Regular, Menlo, Consolas, &apos;DejaVu Sans Mono&apos;, monospace" font-size="15">
<rect width="1018" height="668" rx="8" fill="#1e222a"/>
<rect x="14" y="14" width="99" height="20" fill="#2a2a2a"/>
<rect x="122" y="14" width="99" height="20" fill="#2a2a2a"/>
<rect x="230" y="14" width="162" height="20" fill="#8fa1b3"/>
<text x="23 32 50 59 68 77 86 95" y="29" fill="#eff1f5">1:Viewer</text>
<text x="131 140 158 167 176 185 194 203" y="29" fill="#eff1f5">2:Issues</text>
<text x="239 248 266 275 284 293 311 320 329 338 347 356 365 374" y="29" fill="#eff1f5">3:PullRequests</text>
<rect x="230" y="34" width="774" height="20" fill="#2b303b"/>
<text x="14 23 32 41 59 68 77 86 95 104 113 122 131 140 149 158 167 176 185 194 203 212 221" y="49" fill="#65737e">┌prs2/3───────────────┐</text>
<text x="230 239 248 257 284 293 302 311 320 338 356 374 392 410 428 455 464 482 500 518 536 554 572 590 608 626 644 662 680 698 716 734 752 788 797 806 815 824 833 842 851 860 869 878 887 896 905 914 923 932 941 950 959 968 977 986 995" y="49" fill="#96b5b4">┌#62feat:実装しながらUIを確認できるプレビューを追加する[description]──────────┐</text>
<rect x="23" y="54" width="198" height="20" fill="#65737e"/>
<rect x="230" y="54" width="774" height="20" fill="#2b303b"/>
<text x="14" y="69" fill="#65737e">│</text>
<text x="23" y="69" fill="#96b5b4" font-weight="bold">▎</text>
<text x="32 41 50" y="69" fill="#65737e" font-weight="bold">#62</text>
<text x="68 77 86 95 104 122 140 158 176 194" y="69" fill="#c0c5ce" font-weight="bold">feat:実装しなが</text>
<text x="221" y="69" fill="#65737e">│</text>
<text x="230" y="69" fill="#96b5b4">│</text>
<text x="239 248 257 284 293 302 311 320 338 356 374 392 410 428 455 464 482 500 518 536 554 572 590 608 626 644 662 680 698 716 734 752" y="69" fill="#c0c5ce" font-weight="bold">#62feat:実装しながらUIを確認できるプレビューを追加する</text>
<text x="995" y="69" fill="#96b5b4">│</text>
<rect x="230" y="74" width="774" height="20" fill="#2b303b"/>
<text x="14" y="89" fill="#65737e">│</text>
<text x="32 41 50" y="89" fill="#65737e">#58</text>
<text x="68 77 86 95 104 122 140 158 176 194" y="89" fill="#c0c5ce">perf:ツリーペイ</text>
<text x="221" y="89" fill="#65737e">│</text>
<text x="230" y="89" fill="#96b5b4">│</text>
<text x="239 248 257 266 293 302 311 320 329 338 347 356 365 392 401 410 419 428 437 446 455 464 473 482 491 500 509 518 527 536 545 554 563" y="89" fill="#65737e">open@matuyuhi2026-08-01T01:20:00Z</text>
<text x="995" y="89" fill="#96b5b4">│</text>
<rect x="230" y="94" width="774" height="20" fill="#2b303b"/>
<text x="14" y="109" fill="#65737e">│</text>
<text x="221" y="109" fill="#65737e">│</text>
<text x="230 239 248 257 266 275 284 293 311 320 329 338 347 356 365 374 383 392 401" y="109" fill="#96b5b4">│labels:enhancement</text>
<text x="995" y="109" fill="#96b5b4">│</text>
<rect x="230" y="114" width="774" height="20" fill="#2b303b"/>
<text x="14" y="129" fill="#65737e">│</text>
<text x="221" y="129" fill="#65737e">│</text>
<text x="230" y="129" fill="#96b5b4">│</text>
<text x="995" y="129" fill="#96b5b4">│</text>
<rect x="230" y="134" width="774" height="20" fill="#2b303b"/>
<text x="14" y="149" fill="#65737e">│</text>
<text x="221" y="149" fill="#65737e">│</text>
<text x="230" y="149" fill="#96b5b4">│</text>
<text x="239 248 257 275 284 293 302 311 320 329 338 347 356 374 392 410 428 446 464 482 500 518 536 554 572 590 608 626 644 662 680 707 716 725 743 761 779 797 815 833 851 869 887 905 923" y="149" fill="#c0c5ce">`fv--preview`で、レーン・オーバーレイごとの画面をTUIを起動せずに描き出す。</text>
<text x="995" y="149" fill="#96b5b4">│</text>
<rect x="230" y="154" width="774" height="20" fill="#2b303b"/>
<text x="14" y="169" fill="#65737e">│</text>
<text x="221" y="169" fill="#65737e">│</text>
<text x="230" y="169" fill="#96b5b4">│</text>
<text x="995" y="169" fill="#96b5b4">│</text>
<rect x="230" y="174" width="774" height="20" fill="#2b303b"/>
<text x="14" y="189" fill="#65737e">│</text>
<text x="221" y="189" fill="#65737e">│</text>
<text x="230" y="189" fill="#96b5b4">│</text>
<text x="239 257 266 275 284 293 302 311 320 329 338 347 365 392 410 428 446 464 482 500 527 545 554 563 572 590 608 626 644" y="189" fill="#c0c5ce">-TestBackendで1フレーム描画→ANSIに落とす</text>
<text x="995" y="189" fill="#96b5b4">│</text>
<rect x="230" y="194" width="774" height="20" fill="#2b303b"/>
<text x="14" y="209" fill="#65737e">│</text>
<text x="221" y="209" fill="#65737e">│</text>
<text x="230" y="209" fill="#96b5b4">│</text>
<text x="239 257 275 293 311 329 347 365 383 401 419 437 455" y="209" fill="#c0c5ce">-状態はキー列で組み立てる</text>
<text x="995" y="209" fill="#96b5b4">│</text>
<rect x="230" y="214" width="774" height="20" fill="#2b303b"/>
<text x="14" y="229" fill="#65737e">│</text>
<text x="221" y="229" fill="#65737e">│</text>
<text x="230" y="229" fill="#96b5b4">│</text>
<text x="995" y="229" fill="#96b5b4">│</text>
<rect x="230" y="234" width="774" height="20" fill="#2b303b"/>
<text x="14" y="249" fill="#65737e">│</text>
<text x="221" y="249" fill="#65737e">│</text>
<text x="230" y="249" fill="#96b5b4">│</text>
<text x="239 248 257 275 284 293 302 311 320 329 338 356 365 374" y="249" fill="#65737e">───comments───</text>
<text x="995" y="249" fill="#96b5b4">│</text>
<rect x="230" y="254" width="774" height="20" fill="#2b303b"/>
<text x="14" y="269" fill="#65737e">│</text>
<text x="221" y="269" fill="#65737e">│</text>
<text x="230" y="269" fill="#96b5b4">│</text>
<text x="995" y="269" fill="#96b5b4">│</text>
<rect x="230" y="274" width="774" height="20" fill="#2b303b"/>
<text x="14" y="289" fill="#65737e">│</text>
<text x="221" y="289" fill="#65737e">│</text>
<text x="230 239 248 257 266 275 284 293 302 311" y="289" fill="#96b5b4">│@reviewer</text>
<text x="995" y="289" fill="#96b5b4">│</text>
<rect x="230" y="294" width="774" height="20" fill="#2b303b"/>
<text x="14" y="309" fill="#65737e">│</text>
<text x="221" y="309" fill="#65737e">│</text>
<text x="230" y="309" fill="#96b5b4">│</text>
<text x="239 257 275 293 311 329 347 365 383 401 419 437 455 473 491 509 527 545 563 581 599" y="309" fill="#c0c5ce">シーンはキー列で組み立てる形にしましょう。</text>
<text x="995" y="309" fill="#96b5b4">│</text>
<rect x="230" y="314" width="774" height="20" fill="#2b303b"/>
<text x="14" y="329" fill="#65737e">│</text>
<text x="221" y="329" fill="#65737e">│</text>
<text x="230" y="329" fill="#96b5b4">│</text>
<text x="995" y="329" fill="#96b5b4">│</text>
<rect x="230" y="334" width="774" height="20" fill="#2b303b"/>
<text x="14" y="349" fill="#65737e">│</text>
<text x="221" y="349" fill="#65737e">│</text>
<text x="230 239 248 257 266 275 284 293 302 311" y="349" fill="#96b5b4">│@matuyuhi</text>
<text x="995" y="349" fill="#96b5b4">│</text>
<rect x="230" y="354" width="774" height="20" fill="#2b303b"/>
<text x="14" y="369" fill="#65737e">│</text>
<text x="221" y="369" fill="#65737e">│</text>
<text x="230" y="369" fill="#96b5b4">│</text>
<text x="239 257 275 293 311 329 347 365 383 401 419 437 455 473 491 509 527 545 563 581 599 617 635 653 671" y="369" fill="#c0c5ce">そうします。保存のたびに描き直せるようにもします。</text>
<text x="995" y="369" fill="#96b5b4">│</text>
<rect x="230" y="374" width="774" height="20" fill="#2b303b"/>
<text x="14" y="389" fill="#65737e">│</text>
<text x="221" y="389" fill="#65737e">│</text>
<text x="230" y="389" fill="#96b5b4">│</text>
<text x="995" y="389" fill="#96b5b4">│</text>
<rect x="230" y="394" width="774" height="20" fill="#2b303b"/>
<text x="14" y="409" fill="#65737e">│</text>
<text x="221" y="409" fill="#65737e">│</text>
<text x="230" y="409" fill="#96b5b4">│</text>
<text x="995" y="409" fill="#96b5b4">│</text>
<rect x="230" y="414" width="774" height="20" fill="#2b303b"/>
<text x="14" y="429" fill="#65737e">│</text>
<text x="221" y="429" fill="#65737e">│</text>
<text x="230" y="429" fill="#96b5b4">│</text>
<text x="995" y="429" fill="#96b5b4">│</text>
<rect x="230" y="434" width="774" height="20" fill="#2b303b"/>
<text x="14" y="449" fill="#65737e">│</text>
<text x="221" y="449" fill="#65737e">│</text>
<text x="230" y="449" fill="#96b5b4">│</text>
<text x="995" y="449" fill="#96b5b4">│</text>
<rect x="230" y="454" width="774" height="20" fill="#2b303b"/>
<text x="14" y="469" fill="#65737e">│</text>
<text x="221" y="469" fill="#65737e">│</text>
<text x="230" y="469" fill="#96b5b4">│</text>
<text x="995" y="469" fill="#96b5b4">│</text>
<rect x="230" y="474" width="774" height="20" fill="#2b303b"/>
<text x="14" y="489" fill="#65737e">│</text>
<text x="221" y="489" fill="#65737e">│</text>
<text x="230" y="489" fill="#96b5b4">│</text>
<text x="995" y="489" fill="#96b5b4">│</text>
<rect x="230" y="494" width="774" height="20" fill="#2b303b"/>
<text x="14" y="509" fill="#65737e">│</text>
<text x="221" y="509" fill="#65737e">│</text>
<text x="230" y="509" fill="#96b5b4">│</text>
<text x="995" y="509" fill="#96b5b4">│</text>
<rect x="230" y="514" width="774" height="20" fill="#2b303b"/>
<text x="14" y="529" fill="#65737e">│</text>
<text x="221" y="529" fill="#65737e">│</text>
<text x="230" y="529" fill="#96b5b4">│</text>
<text x="995" y="529" fill="#96b5b4">│</text>
<rect x="230" y="534" width="774" height="20" fill="#2b303b"/>
<text x="14" y="549" fill="#65737e">│</text>
<text x="221" y="549" fill="#65737e">│</text>
<text x="230" y="549" fill="#96b5b4">│</text>
<text x="995" y="549" fill="#96b5b4">│</text>
<rect x="230" y="554" width="774" height="20" fill="#2b303b"/>
<text x="14" y="569" fill="#65737e">│</text>
<text x="221" y="569" fill="#65737e">│</text>
<text x="230" y="569" fill="#96b5b4">│</text>
<text x="995" y="569" fill="#96b5b4">│</text>
<rect x="230" y="574" width="774" height="20" fill="#2b303b"/>
<text x="14" y="589" fill="#65737e">│</text>
<text x="221" y="589" fill="#65737e">│</text>
<text x="230" y="589" fill="#96b5b4">│</text>
<text x="995" y="589" fill="#96b5b4">│</text>
<rect x="230" y="594" width="774" height="20" fill="#2b303b"/>
<text x="14" y="609" fill="#65737e">│</text>
<text x="221" y="609" fill="#65737e">│</text>
<text x="230" y="609" fill="#96b5b4">│</text>
<text x="995" y="609" fill="#96b5b4">│</text>
<rect x="230" y="614" width="774" height="20" fill="#2b303b"/>
<text x="14 23 32 41 50 59 68 77 86 95 104 113 122 131 140 149 158 167 176 185 194 203 212 221" y="629" fill="#65737e">└──────────────────────┘</text>
<text x="230 239 248 257 266 275 284 293 302 311 320 329 338 347 356 365 374 383 392 401 410 419 428 437 446 455 464 473 482 491 500 509 518 527 536 545 554 563 572 581 590 599 608 617 626 635 644 653 662 671 680 689 698 707 716 725 734 743 752 761 770 779 788 797 806 815 824 833 842 851 860 869 878 887 896 905 914 923 932 941 950 959 968 977 986 995" y="629" fill="#96b5b4">└────────────────────────────────────────────────────────────────────────────────────┘</text>
<text x="23 32 41 50 77 86 95 104 131 140 149" y="649" fill="#c0c5ce" fill-opacity="0.55">VIEWEDITGIT</text>
<text x="185 194 203 212" y="649" fill="#b48ead">main</text>
<text x="239 248 257 275 284 293 302 320 329 338 347 356 365 374 383 401 410 419 428 437 446 473 482 491 500 518 527 536 545 554 563 581 590 599 608 617 626 653 662 680 689 698 707 734 743 761 770 779 788 797 806 833 842 851 860 878 887 896 905 923 932 941 950 959 968 995" y="649" fill="#eff1f5">2/3pullrequests[open]j/k:cursor(diff)d:diffS:checks]/[:hunk(diff)w</text>
</svg>
