<?xml version="1.0" encoding="UTF-8"?>
<svg xmlns="http://www.w3.org/2000/svg" width="1018" height="668" viewBox="0 0 1018 668" font-family="ui-monospace, SFMono-Regular, Menlo, Consolas, &apos;DejaVu Sans Mono&apos;, monospace" font-size="15">
<rect width="1018" height="668" rx="8" fill="#1e222a"/>
<rect x="14" y="14" width="90" height="20" fill="#8fa1b3"/>
<rect x="113" y="14" width="72" height="20" fill="#2a2a2a"/>
<rect x="194" y="14" width="135" height="20" fill="#2a2a2a"/>
<text x="23 32 41 50 59 68 86" y="29" fill="#eff1f5">Viewer●</text>
<text x="122 131 140 149 158 167" y="29" fill="#eff1f5">Issues</text>
<text x="203 212 221 230 248 257 266 275 284 293 302 311" y="29" fill="#eff1f5">PullRequests</text>
<rect x="311" y="34" width="693" height="20" fill="#2b303b"/>
<text x="14 23 32 41 50 59 68 77 86 95 104 113 122 131 140 149 158 167 176 185 194 203 212 221 230 239 248 257 266 275 284 293 302" y="49" fill="#65737e">┌fv-preview-fixture─────────────┐</text>
<text x="311 320 329 338 347 356 365 374 383 392 401 410 419 437 446 455 464 473 482 491 500 509 518 527 536 545 554 563 572 581 590 599 608 617 626 635 644 653 662 671 680 689 698 707 716 725 734 743 752 761 770 779 788 797 806 815 824 833 842 851 860 869 878 887 896 905 914 923 932 941 950 959 968 977 986 995" y="49" fill="#96b5b4">┌src/main.rs*[EDIT]────────────────────────────────────────────────────────┐</text>
<rect x="311" y="54" width="693" height="20" fill="#2b303b"/>
<text x="14" y="69" fill="#65737e">│</text>
<text x="23" y="69" fill="#c0c5ce">▸</text>
<text x="41 50 59 68 77 86" y="69" fill="#8fa1b3">assets</text>
<text x="302" y="69" fill="#65737e">│</text>
<text x="311" y="69" fill="#96b5b4">│</text>
<text x="329" y="69" fill="#65737e">1</text>
<text x="347 356 365" y="69" fill="#b48ead">mod</text>
<text x="383 392 401 410" y="69" fill="#c0c5ce">app;</text>
<text x="995" y="69" fill="#96b5b4">│</text>
<rect x="311" y="74" width="693" height="20" fill="#2b303b"/>
<text x="14" y="89" fill="#65737e">│</text>
<text x="23" y="89" fill="#c0c5ce">▸</text>
<text x="41 50 59 68" y="89" fill="#ebcb8b">docs</text>
<text x="302" y="89" fill="#65737e">│</text>
<text x="311" y="89" fill="#96b5b4">│</text>
<text x="329" y="89" fill="#65737e">2</text>
<text x="347 356 365" y="89" fill="#b48ead">mod</text>
<text x="383 392 401" y="89" fill="#c0c5ce">ui;</text>
<text x="995" y="89" fill="#96b5b4">│</text>
<rect x="311" y="94" width="693" height="20" fill="#2b303b"/>
<text x="14" y="109" fill="#65737e">│</text>
<text x="23" y="109" fill="#c0c5ce">▾</text>
<text x="41 50 59" y="109" fill="#ebcb8b">src</text>
<text x="302" y="109" fill="#65737e">│</text>
<text x="311" y="109" fill="#96b5b4">│</text>
<text x="329" y="109" fill="#65737e">3</text>
<text x="995" y="109" fill="#96b5b4">│</text>
<rect x="311" y="114" width="693" height="20" fill="#2b303b"/>
<text x="14" y="129" fill="#65737e">│</text>
<text x="41" y="129" fill="#c0c5ce">▸</text>
<text x="59 68 77" y="129" fill="#8fa1b3">app</text>
<text x="302" y="129" fill="#65737e">│</text>
<text x="311" y="129" fill="#96b5b4">│</text>
<text x="329" y="129" fill="#65737e">4</text>
<text x="347 356 365" y="129" fill="#b48ead">use</text>
<text x="383 392 401 410 419 428 437 446 455 464 473 482 491 500 509 518 527 536" y="129" fill="#c0c5ce">std::error::Error;</text>
<text x="995" y="129" fill="#96b5b4">│</text>
<rect x="23" y="134" width="279" height="20" fill="#65737e"/>
<rect x="311" y="134" width="693" height="20" fill="#2b303b"/>
<text x="14" y="149" fill="#65737e">│</text>
<text x="68" y="149" fill="#bf616a" font-weight="bold">M</text>
<text x="86 95 104 113 122 131 140" y="149" fill="#ebcb8b" font-weight="bold">main.rs</text>
<text x="302" y="149" fill="#65737e">│</text>
<text x="311" y="149" fill="#96b5b4">│</text>
<text x="329" y="149" fill="#65737e">5</text>
<text x="347 356 365" y="149" fill="#b48ead">use</text>
<text x="383 392 401 410 419 428 437 446 455 464 473 482 491 500 509 518 527 536 545" y="149" fill="#c0c5ce">std::path::PathBuf;</text>
<text x="995" y="149" fill="#96b5b4">│</text>
<rect x="311" y="154" width="693" height="20" fill="#2b303b"/>
<text x="14" y="169" fill="#65737e">│</text>
<text x="59 68" y="169" fill="#bf616a">??</text>
<text x="86 95 104 113 122 131 140 149 158 167 176" y="169" fill="#ebcb8b">new_lane.rs</text>
<text x="302" y="169" fill="#65737e">│</text>
<text x="311" y="169" fill="#96b5b4">│</text>
<text x="329" y="169" fill="#65737e">6</text>
<text x="995" y="169" fill="#96b5b4">│</text>
<rect x="311" y="174" width="693" height="20" fill="#2b303b"/>
<text x="14" y="189" fill="#65737e">│</text>
<text x="59 86 95 104 113 122" y="189" fill="#a3be8c">Mui.rs</text>
<text x="302" y="189" fill="#65737e">│</text>
<text x="311" y="189" fill="#96b5b4">│</text>
<text x="329" y="189" fill="#65737e">7</text>
<text x="347 356 365" y="189" fill="#b48ead">use</text>
<text x="383 392 401 410 419 428 437 446 455" y="189" fill="#c0c5ce">app::App;</text>
<text x="995" y="189" fill="#96b5b4">│</text>
<rect x="311" y="194" width="693" height="20" fill="#2b303b"/>
<text x="14" y="209" fill="#65737e">│</text>
<text x="41 50 59 68 77 86 95 104 113" y="209" fill="#c0c5ce">README.md</text>
<text x="302" y="209" fill="#65737e">│</text>
<text x="311" y="209" fill="#96b5b4">│</text>
<text x="329" y="209" fill="#65737e">8</text>
<text x="995" y="209" fill="#96b5b4">│</text>
<rect x="311" y="214" width="693" height="20" fill="#2b303b"/>
<text x="14" y="229" fill="#65737e">│</text>
<text x="302" y="229" fill="#65737e">│</text>
<text x="311" y="229" fill="#96b5b4">│</text>
<text x="329" y="229" fill="#65737e">9</text>
<text x="347 356" y="229" fill="#b48ead">fn</text>
<text x="374 383 392 401" y="229" fill="#8fa1b3">main</text>
<text x="410 419 437 446 464 473 482 491 500 509 518 527 536 545 563 572 581 590 599 608 617 635 644 653 662 671 680 689 707" y="229" fill="#c0c5ce">()-&gt;Result&lt;(),Box&lt;dynError&gt;&gt;{</text>
<text x="995" y="229" fill="#96b5b4">│</text>
<rect x="311" y="234" width="189" height="20" fill="#2b303b"/>
<rect x="500" y="234" width="9" height="20" fill="#9dabb6"/>
<rect x="509" y="234" width="495" height="20" fill="#2b303b"/>
<text x="14" y="249" fill="#65737e">│</text>
<text x="302" y="249" fill="#65737e">│</text>
<text x="311 320 329 338" y="249" fill="#96b5b4">│10▎</text>
<text x="383 392 410 428 446 464 482" y="249" fill="#9dabb6">//編集中の行</text>
<text x="500" y="249" fill="#2b303b">l</text>
<text x="509 518 536 545 554 563 581 599 608 617 626 635 644 653 662 671 680 689 698 707 716 725 734 743 752 761 770 779 788 797 806 815 824 833 842 851 860 869 878 887 896 905 914 923 932 941 950 959 977 986" y="249" fill="#9dabb6">etroot=std::env::args().nth(1).unwrap_or_else(||".</text>
<text x="995" y="249" fill="#96b5b4">│</text>
<rect x="311" y="254" width="693" height="20" fill="#2b303b"/>
<text x="14" y="269" fill="#65737e">│</text>
<text x="302" y="269" fill="#65737e">│</text>
<text x="311" y="269" fill="#96b5b4">│</text>
<text x="320 329" y="269" fill="#65737e">11</text>
<text x="383 392 401" y="269" fill="#b48ead">let</text>
<text x="419 428 437" y="269" fill="#b48ead">mut</text>
<text x="455 464 473 491 509 518 527 536 545 554 563 572 581 590" y="269" fill="#c0c5ce">app=App::new("</text>
<text x="599 608 617 626 635 644 653 662 671 680" y="269" fill="#a3be8c">sample-app</text>
<text x="689 698 707" y="269" fill="#c0c5ce">");</text>
<text x="995" y="269" fill="#96b5b4">│</text>
<rect x="311" y="274" width="693" height="20" fill="#2b303b"/>
<text x="14" y="289" fill="#65737e">│</text>
<text x="302" y="289" fill="#65737e">│</text>
<text x="311 320 329 338" y="289" fill="#96b5b4">│12▎</text>
<text x="383 392 401" y="289" fill="#b48ead">let</text>
<text x="419 428 437 446 464 482 491 500 509 518 527 536 545 554 563" y="289" fill="#c0c5ce">mode=Lane::Git;</text>
<text x="995" y="289" fill="#96b5b4">│</text>
<rect x="311" y="294" width="693" height="20" fill="#2b303b"/>
<text x="14" y="309" fill="#65737e">│</text>
<text x="302" y="309" fill="#65737e">│</text>
<text x="311" y="309" fill="#96b5b4">│</text>
<text x="320 329" y="309" fill="#65737e">13</text>
<text x="383 392 401 410 419 428 437 446 455 473" y="309" fill="#c0c5ce">app.items=</text>
<text x="491 500 509 518 527 536 545" y="309" fill="#96b5b4">collect</text>
<text x="554 563 572 581 590 599 608 617 626 635 644 653 662 671 680 689 698 707 716 725 734 743 752 761" y="309" fill="#c0c5ce">(&amp;PathBuf::from(root))?;</text>
<text x="995" y="309" fill="#96b5b4">│</text>
<rect x="311" y="314" width="693" height="20" fill="#2b303b"/>
<text x="14" y="329" fill="#65737e">│</text>
<text x="302" y="329" fill="#65737e">│</text>
<text x="311 320 329 338" y="329" fill="#96b5b4">│14▎</text>
<text x="995" y="329" fill="#96b5b4">│</text>
<rect x="311" y="334" width="693" height="20" fill="#2b303b"/>
<text x="14" y="349" fill="#65737e">│</text>
<text x="302" y="349" fill="#65737e">│</text>
<text x="311 320 329 338" y="349" fill="#96b5b4">│15▎</text>
<text x="383 392 410 428 446 464 482 509 518 527 545 563 581 599 617 635" y="349" fill="#9dabb6">//起動直後はGITレーンに入る</text>
<text x="995" y="349" fill="#96b5b4">│</text>
<rect x="311" y="354" width="693" height="20" fill="#2b303b"/>
<text x="14" y="369" fill="#65737e">│</text>
<text x="302" y="369" fill="#65737e">│</text>
<text x="311 320 329 338" y="369" fill="#96b5b4">│16▎</text>
<text x="383 392 401 410" y="369" fill="#c0c5ce">app.</text>
<text x="419 428 437 446 455 464 473 482 491 500" y="369" fill="#96b5b4">enter_lane</text>
<text x="509 518 527 536 545 554 563" y="369" fill="#c0c5ce">(mode);</text>
<text x="995" y="369" fill="#96b5b4">│</text>
<rect x="311" y="374" width="693" height="20" fill="#2b303b"/>
<text x="14" y="389" fill="#65737e">│</text>
<text x="302" y="389" fill="#65737e">│</text>
<text x="311" y="389" fill="#96b5b4">│</text>
<text x="320 329" y="389" fill="#65737e">17</text>
<text x="383 392 401 410 419 428 437 446 455 464" y="389" fill="#c0c5ce">println!("</text>
<text x="473 482" y="389" fill="#d08770">{}</text>
<text x="491 500 518 527 536 545" y="389" fill="#c0c5ce">",app.</text>
<text x="554 563 572 581 590 599" y="389" fill="#96b5b4">render</text>
<text x="608 617 626 635" y="389" fill="#c0c5ce">());</text>
<text x="995" y="389" fill="#96b5b4">│</text>
<rect x="311" y="394" width="693" height="20" fill="#2b303b"/>
<text x="14" y="409" fill="#65737e">│</text>
<text x="302" y="409" fill="#65737e">│</text>
<text x="311" y="409" fill="#96b5b4">│</text>
<text x="320 329" y="409" fill="#65737e">18</text>
<text x="383 392 401 410 419 428" y="409" fill="#c0c5ce">Ok(())</text>
<text x="995" y="409" fill="#96b5b4">│</text>
<rect x="311" y="414" width="693" height="20" fill="#2b303b"/>
<text x="14" y="429" fill="#65737e">│</text>
<text x="302" y="429" fill="#65737e">│</text>
<text x="311" y="429" fill="#96b5b4">│</text>
<text x="320 329" y="429" fill="#65737e">19</text>
<text x="347" y="429" fill="#c0c5ce">}</text>
<text x="995" y="429" fill="#96b5b4">│</text>
<rect x="311" y="434" width="693" height="20" fill="#2b303b"/>
<text x="14" y="449" fill="#65737e">│</text>
<text x="302" y="449" fill="#65737e">│</text>
<text x="311" y="449" fill="#96b5b4">│</text>
<text x="320 329" y="449" fill="#65737e">20</text>
<text x="995" y="449" fill="#96b5b4">│</text>
<rect x="311" y="454" width="693" height="20" fill="#2b303b"/>
<text x="14" y="469" fill="#65737e">│</text>
<text x="302" y="469" fill="#65737e">│</text>
<text x="311" y="469" fill="#96b5b4">│</text>
<text x="320 329" y="469" fill="#65737e">21</text>
<text x="347 356" y="469" fill="#b48ead">fn</text>
<text x="374 383 392 401 410 419 428" y="469" fill="#8fa1b3">collect</text>
<text x="437" y="469" fill="#c0c5ce">(</text>
<text x="446 455 464 473" y="469" fill="#bf616a">root</text>
<text x="482 500 509 518 527 536 545 554 563 572 590 599 617 626 635 644 653 662 671 680 689 698 707 716 725 734 743 752 761 770 779 797 806 815 824 833 842 851 869 878 887 896 905 914 923 941" y="469" fill="#c0c5ce">:&amp;PathBuf)-&gt;Result&lt;Vec&lt;String&gt;,Box&lt;dynError&gt;&gt;{</text>
<text x="995" y="469" fill="#96b5b4">│</text>
<rect x="311" y="474" width="693" height="20" fill="#2b303b"/>
<text x="14" y="489" fill="#65737e">│</text>
<text x="302" y="489" fill="#65737e">│</text>
<text x="311" y="489" fill="#96b5b4">│</text>
<text x="320 329" y="489" fill="#65737e">22</text>
<text x="383 392 401" y="489" fill="#b48ead">let</text>
<text x="419 428 437" y="489" fill="#b48ead">mut</text>
<text x="455 464 473 482 491 509 527 536 545 554 563 572 581 590 599 608 617" y="489" fill="#c0c5ce">items=Vec::new();</text>
<text x="995" y="489" fill="#96b5b4">│</text>
<rect x="311" y="494" width="693" height="20" fill="#2b303b"/>
<text x="14" y="509" fill="#65737e">│</text>
<text x="302" y="509" fill="#65737e">│</text>
<text x="311" y="509" fill="#96b5b4">│</text>
<text x="320 329" y="509" fill="#65737e">23</text>
<text x="383 392 401" y="509" fill="#b48ead">for</text>
<text x="419 428 437 446 455 473 482 500 509 518 527 536 545 554 563 572 581 590 599 608 617 626 635 644 653 662 671 680 689 698 707 725" y="509" fill="#c0c5ce">entryinstd::fs::read_dir(root)?{</text>
<text x="995" y="509" fill="#96b5b4">│</text>
<rect x="311" y="514" width="693" height="20" fill="#2b303b"/>
<text x="14" y="529" fill="#65737e">│</text>
<text x="302" y="529" fill="#65737e">│</text>
<text x="311" y="529" fill="#96b5b4">│</text>
<text x="320 329" y="529" fill="#65737e">24</text>
<text x="419 428 437" y="529" fill="#b48ead">let</text>
<text x="455 464 473 482 491 509 527 536 545 554 563 572 581" y="529" fill="#c0c5ce">entry=entry?;</text>
<text x="995" y="529" fill="#96b5b4">│</text>
<rect x="311" y="534" width="693" height="20" fill="#2b303b"/>
<text x="14" y="549" fill="#65737e">│</text>
<text x="302" y="549" fill="#65737e">│</text>
<text x="311" y="549" fill="#96b5b4">│</text>
<text x="320 329" y="549" fill="#65737e">25</text>
<text x="419 428 437 446 455 464" y="549" fill="#c0c5ce">items.</text>
<text x="473 482 491 500" y="549" fill="#96b5b4">push</text>
<text x="509 518 527 536 545 554 563" y="549" fill="#c0c5ce">(entry.</text>
<text x="572 581 590 599 608 617 626 635 644" y="549" fill="#96b5b4">file_name</text>
<text x="653 662 671" y="549" fill="#c0c5ce">().</text>
<text x="680 689 698 707 716 725 734 743 752 761 770 779 788 797 806" y="549" fill="#96b5b4">to_string_lossy</text>
<text x="815 824 833" y="549" fill="#c0c5ce">().</text>
<text x="842 851 860 869 878 887 896 905 914 923" y="549" fill="#96b5b4">into_owned</text>
<text x="932 941 950 959" y="549" fill="#c0c5ce">());</text>
<text x="995" y="549" fill="#96b5b4">│</text>
<rect x="311" y="554" width="693" height="20" fill="#2b303b"/>
<text x="14" y="569" fill="#65737e">│</text>
<text x="302" y="569" fill="#65737e">│</text>
<text x="311" y="569" fill="#96b5b4">│</text>
<text x="320 329" y="569" fill="#65737e">26</text>
<text x="383" y="569" fill="#c0c5ce">}</text>
<text x="995" y="569" fill="#96b5b4">│</text>
<rect x="311" y="574" width="693" height="20" fill="#2b303b"/>
<text x="14" y="589" fill="#65737e">│</text>
<text x="302" y="589" fill="#65737e">│</text>
<text x="311" y="589" fill="#96b5b4">│</text>
<text x="320 329" y="589" fill="#65737e">27</text>
<text x="383 392 401 410 419 428" y="589" fill="#c0c5ce">items.</text>
<text x="437 446 455 464" y="589" fill="#96b5b4">sort</text>
<text x="473 482 491" y="589" fill="#c0c5ce">();</text>
<text x="995" y="589" fill="#96b5b4">│</text>
<rect x="311" y="594" width="693" height="20" fill="#2b303b"/>
<text x="14" y="609" fill="#65737e">│</text>
<text x="302" y="609" fill="#65737e">│</text>
<text x="311" y="609" fill="#96b5b4">│</text>
<text x="320 329" y="609" fill="#65737e">28</text>
<text x="383 392 401 410 419 428 437 446 455" y="609" fill="#c0c5ce">Ok(items)</text>
<text x="995" y="609" fill="#96b5b4">│</text>
<rect x="311" y="614" width="693" height="20" fill="#2b303b"/>
<text x="14 23 32 41 50 59 68 77 86 95 104 113 122 131 140 149 158 167 176 185 194 203 212 221 230 239 248 257 266 275 284 293 302" y="629" fill="#65737e">└───────────────────────────────┘</text>
<text x="311 320 329 338 347 356 365 374 383 392 401 410 419 428 437 446 455 464 473 482 491 500 509 518 527 536 545 554 563 572 581 590 599 608 617 626 635 644 653 662 671 680 689 698 707 716 725 734 743 752 761 770 779 788 797 806 815 824 833 842 851 860 869 878 887 896 905 914 923 932 941 950 959 968 977 986 995" y="629" fill="#96b5b4">└───────────────────────────────────────────────────────────────────────────┘</text>
<rect x="68" y="634" width="54" height="20" fill="#a3be8c"/>
<text x="23 32 41 50" y="649" fill="#eff1f5">VIEW</text>
<text x="77 86 95 104" y="649" fill="#eff1f5">EDIT</text>
<text x="131 140 149 176 185 194" y="649" fill="#eff1f5">GITLOG</text>
<text x="230 239 248 257" y="649" fill="#b48ead">main</text>
<text x="284 293 302 311 320 347 356 365 374 383 392 401 419 428 437 446 473 482 491 500 509 518 527 536 545 563 572 581 590 599 608 617 626 635 662 671 680 689 698 707 716 734 743 752 761 770 779 797 806 815 824 851 860 869 878 896 905 914 923" y="649" fill="#eff1f5">10:13Ctrl+s:saveCtrl+z/y:undo/redoCtrl+k:deletelineEsc:exit</text>
</svg>
