<?xml version="1.0" encoding="UTF-8"?>
<svg xmlns="http://www.w3.org/2000/svg" width="1018" height="668" viewBox="0 0 1018 668" font-family="ui-monospace, SFMono-Regular, Menlo, Consolas, &apos;DejaVu Sans Mono&apos;, monospace" font-size="15">
<rect width="1018" height="668" rx="8" fill="#1e222a"/>
<rect x="14" y="14" width="99" height="20" fill="#2a2a2a"/>
<rect x="122" y="14" width="99" height="20" fill="#8fa1b3"/>
<rect x="230" y="14" width="162" height="20" fill="#2a2a2a"/>
<text x="23 32 50 59 68 77 86 95" y="29" fill="#eff1f5">1:Viewer</text>
<text x="131 140 158 167 176 185 194 203" y="29" fill="#eff1f5">2:Issues</text>
<text x="239 248 266 275 284 293 311 320 329 338 347 356 365 374" y="29" fill="#eff1f5">3:PullRequests</text>
<text x="14 23 32 41 50 59 68 86 95 104 122 131 140 149 158 167 176 185 194 203 212 221 230 239 248 257 266 275 284 293 302 311 320 329 338 347 356 365 374 383 392 401 410 419 428 437 446 455 464 473 482 491 500 509 518 527 536 545 554 563 572 581 590 599 608 617 626 635 644 653 662 671 680 689 698 707 716 725 734 743 752 761 770 779 788 797 806 815 824 833 842 851 860 869 878 887 896 905 914 923 932 941 950 959 968 977 986 995" y="49" fill="#96b5b4">┌issues2/3[open]───────────────────────────────────────────────────────────────────────────────────────────┐</text>
<text x="14" y="69" fill="#96b5b4">│</text>
<text x="32 41 50" y="69" fill="#65737e">#41</text>
<text x="95 104 113 131 149 167 185 212 221 230 239 257 275 293 320 329 338 347 356 374 392 410 428" y="69" fill="#c0c5ce">GITレーンでhunk単位のstageをしたい</text>
<text x="464 473 482 491 500 509 518 527 536 563 572 581 590 599 608 617 626 635 644" y="69" fill="#65737e">@matuyuhi2026-07-28</text>
<text x="671 680 689 698 707 716 725 734 743 752 761 770 779 797 806 815 824" y="69" fill="#96b5b4">[enhancement,git]</text>
<text x="995" y="69" fill="#96b5b4">│</text>
<rect x="23" y="74" width="972" height="20" fill="#65737e"/>
<text x="14" y="89" fill="#96b5b4">│</text>
<text x="23" y="89" fill="#c0c5ce" font-weight="bold">▎</text>
<text x="32 41 50" y="89" fill="#65737e" font-weight="bold">#39</text>
<text x="95 113 131 149 167 185 212 221 239 257 275 293 311 329 347 365 383" y="89" fill="#c0c5ce" font-weight="bold">実装しながらUIをプレビューしたい</text>
<text x="419 428 437 446 455 464 473 482 491 518 527 536 545 554 563 572 581 590 599" y="89" fill="#65737e" font-weight="bold">@matuyuhi2026-07-30</text>
<text x="626 635 644 653 662 671 680 689 698 707 716 725 734 752 761 770" y="89" fill="#96b5b4" font-weight="bold">[enhancement,dx]</text>
<text x="995" y="89" fill="#96b5b4">│</text>
<text x="14" y="109" fill="#96b5b4">│</text>
<text x="995" y="109" fill="#96b5b4">│</text>
<text x="14" y="129" fill="#96b5b4">│</text>
<text x="995" y="129" fill="#96b5b4">│</text>
<text x="14" y="149" fill="#96b5b4">│</text>
<text x="995" y="149" fill="#96b5b4">│</text>
<text x="14" y="169" fill="#96b5b4">│</text>
<text x="995" y="169" fill="#96b5b4">│</text>
<text x="14" y="189" fill="#96b5b4">│</text>
<text x="995" y="189" fill="#96b5b4">│</text>
<text x="14" y="209" fill="#96b5b4">│</text>
<text x="995" y="209" fill="#96b5b4">│</text>
<text x="14" y="229" fill="#96b5b4">│</text>
<text x="995" y="229" fill="#96b5b4">│</text>
<text x="14" y="249" fill="#96b5b4">│</text>
<text x="995" y="249" fill="#96b5b4">│</text>
<text x="14" y="269" fill="#96b5b4">│</text>
<text x="995" y="269" fill="#96b5b4">│</text>
<text x="14" y="289" fill="#96b5b4">│</text>
<text x="995" y="289" fill="#96b5b4">│</text>
<text x="14" y="309" fill="#96b5b4">│</text>
<text x="995" y="309" fill="#96b5b4">│</text>
<text x="14" y="329" fill="#96b5b4">│</text>
<text x="995" y="329" fill="#96b5b4">│</text>
<text x="14" y="349" fill="#96b5b4">│</text>
<text x="995" y="349" fill="#96b5b4">│</text>
<text x="14" y="369" fill="#96b5b4">│</text>
<text x="995" y="369" fill="#96b5b4">│</text>
<text x="14" y="389" fill="#96b5b4">│</text>
<text x="995" y="389" fill="#96b5b4">│</text>
<text x="14" y="409" fill="#96b5b4">│</text>
<text x="995" y="409" fill="#96b5b4">│</text>
<text x="14" y="429" fill="#96b5b4">│</text>
<text x="995" y="429" fill="#96b5b4">│</text>
<text x="14" y="449" fill="#96b5b4">│</text>
<text x="995" y="449" fill="#96b5b4">│</text>
<text x="14" y="469" fill="#96b5b4">│</text>
<text x="995" y="469" fill="#96b5b4">│</text>
<text x="14" y="489" fill="#96b5b4">│</text>
<text x="995" y="489" fill="#96b5b4">│</text>
<text x="14" y="509" fill="#96b5b4">│</text>
<text x="995" y="509" fill="#96b5b4">│</text>
<text x="14" y="529" fill="#96b5b4">│</text>
<text x="995" y="529" fill="#96b5b4">│</text>
<text x="14" y="549" fill="#96b5b4">│</text>
<text x="995" y="549" fill="#96b5b4">│</text>
<text x="14" y="569" fill="#96b5b4">│</text>
<text x="995" y="569" fill="#96b5b4">│</text>
<text x="14" y="589" fill="#96b5b4">│</text>
<text x="995" y="589" fill="#96b5b4">│</text>
<text x="14" y="609" fill="#96b5b4">│</text>
<text x="995" y="609" fill="#96b5b4">│</text>
<text x="14 23 32 41 50 59 68 77 86 95 104 113 122 131 140 149 158 167 176 185 194 203 212 221 230 239 248 257 266 275 284 293 302 311 320 329 338 347 356 365 374 383 392 401 410 419 428 437 446 455 464 473 482 491 500 509 518 527 536 545 554 563 572 581 590 599 608 617 626 635 644 653 662 671 680 689 698 707 716 725 734 743 752 761 770 779 788 797 806 815 824 833 842 851 860 869 878 887 896 905 914 923 932 941 950 959 968 977 986 995" y="629" fill="#96b5b4">└────────────────────────────────────────────────────────────────────────────────────────────────────────────┘</text>
<text x="23 32 41 50 77 86 95 104 131 140 149" y="649" fill="#c0c5ce" fill-opacity="0.55">VIEWEDITGIT</text>
<text x="185 194 203 212" y="649" fill="#b48ead">main</text>
<text x="239 248 257 275 284 293 302 311 320 338 347 356 365 374 383 410 419 428 437 455 464 473 482 509 518 527 536 545 554 563 572 590 599 608 617 644 653 671 680 689 698 707 716 743 752 770 779 788 797 806 833 842 860 869 878 905 914 932 941 950 959 968 977 986" y="649" fill="#eff1f5">2/3issues[open]j/k:moveEnter/l:open/:filtert:stateo:webr:refresh</text>
</svg>
